<svg xmlns="http://www.w3.org/2000/svg" xmlns:xlink="http://www.w3.org/1999/xlink" width="500" zoomAndPan="magnify" viewBox="0 0 375 153.750002" height="205" preserveAspectRatio="xMidYMid meet" version="1.0"><defs><clipPath id="1d8fec5ac6"><path d="M 22.316406 58.609375 L 56.757812 58.609375 L 56.757812 98.296875 L 22.316406 98.296875 Z M 22.316406 58.609375 " clip-rule="nonzero"/></clipPath><clipPath id="182d2d9b13"><path d="M 65.683594 58.609375 L 94.171875 58.609375 L 94.171875 65.324219 L 65.683594 65.324219 Z M 65.683594 58.609375 " clip-rule="nonzero"/></clipPath><clipPath id="e5a3edc252"><path d="M 65.683594 75.046875 L 87.289062 75.046875 L 87.289062 81.761719 L 65.683594 81.761719 Z M 65.683594 75.046875 " clip-rule="nonzero"/></clipPath><clipPath id="50b617ac22"><path d="M 65.683594 91.484375 L 94.171875 91.484375 L 94.171875 98.199219 L 65.683594 98.199219 Z M 65.683594 91.484375 " clip-rule="nonzero"/></clipPath><clipPath id="8be03d9332"><path d="M 103.304688 58.609375 L 134.003906 58.609375 L 134.003906 98.296875 L 103.304688 98.296875 Z M 103.304688 58.609375 " clip-rule="nonzero"/></clipPath><clipPath id="a70e381260"><path d="M 143.417969 58.609375 L 174.867188 58.609375 L 174.867188 98.296875 L 143.417969 98.296875 Z M 143.417969 58.609375 " clip-rule="nonzero"/></clipPath><clipPath id="a59cfb9495"><path d="M 182.179688 71.21875 L 188.894531 71.21875 L 188.894531 98.191406 L 182.179688 98.191406 Z M 182.179688 71.21875 " clip-rule="nonzero"/></clipPath><clipPath id="4beb565fe6"><path d="M 178.863281 52.570312 L 192.34375 52.570312 L 192.34375 71.292969 L 178.863281 71.292969 Z M 178.863281 52.570312 " clip-rule="nonzero"/></clipPath><clipPath id="80c70a252b"><path d="M 201.335938 57.703125 L 234.28125 57.703125 L 234.28125 98.136719 L 201.335938 98.136719 Z M 201.335938 57.703125 " clip-rule="nonzero"/></clipPath><clipPath id="da36c8f6a1"><path d="M 288.734375 59.515625 L 320.183594 59.515625 L 320.183594 99.203125 L 288.734375 99.203125 Z M 288.734375 59.515625 " clip-rule="nonzero"/></clipPath><clipPath id="5834419b92"><path d="M 329.394531 58.609375 L 357.878906 58.609375 L 357.878906 65.324219 L 329.394531 65.324219 Z M 329.394531 58.609375 " clip-rule="nonzero"/></clipPath><clipPath id="1b23f80a5f"><path d="M 329.394531 75.046875 L 350.996094 75.046875 L 350.996094 81.761719 L 329.394531 81.761719 Z M 329.394531 75.046875 " clip-rule="nonzero"/></clipPath><clipPath id="3ccd275749"><path d="M 329.394531 91.484375 L 357.878906 91.484375 L 357.878906 98.199219 L 329.394531 98.199219 Z M 329.394531 91.484375 " clip-rule="nonzero"/></clipPath><clipPath id="02064622d9"><path d="M 16.953125 13 L 154.621094 13 L 154.621094 150.472656 L 16.953125 150.472656 Z M 16.953125 13 " clip-rule="nonzero"/></clipPath><clipPath id="b6a86c2181"><path d="M 243.476562 58.425781 L 282.414062 58.425781 L 282.414062 98.113281 L 243.476562 98.113281 Z M 243.476562 58.425781 " clip-rule="nonzero"/></clipPath></defs><g clip-path="url(#1d8fec5ac6)"><path fill="#000000" d="M 37.691406 58.609375 L 23.222656 58.609375 C 22.722656 58.609375 22.316406 59.015625 22.316406 59.511719 L 22.316406 97.394531 C 22.316406 97.890625 22.722656 98.296875 23.222656 98.296875 L 37.691406 98.296875 C 49.808594 98.296875 56.757812 91 56.757812 78.28125 C 56.757812 65.964844 49.628906 58.609375 37.691406 58.609375 Z M 36.929688 91.984375 L 30.472656 91.984375 L 30.472656 64.925781 L 36.929688 64.925781 C 44.269531 64.925781 48.601562 69.835938 48.601562 78.386719 C 48.601562 87.125 44.375 91.984375 36.929688 91.984375 Z M 36.929688 91.984375 " fill-opacity="1" fill-rule="nonzero"/></g><g clip-path="url(#182d2d9b13)"><path fill="#000000" d="M 65.683594 58.609375 L 94.226562 58.609375 L 94.226562 65.199219 L 65.683594 65.199219 Z M 65.683594 58.609375 " fill-opacity="1" fill-rule="nonzero"/></g><g clip-path="url(#e5a3edc252)"><path fill="#000000" d="M 65.683594 75.046875 L 87.089844 75.046875 L 87.089844 81.632812 L 65.683594 81.632812 Z M 65.683594 75.046875 " fill-opacity="1" fill-rule="nonzero"/></g><g clip-path="url(#50b617ac22)"><path fill="#000000" d="M 65.683594 91.484375 L 94.226562 91.484375 L 94.226562 98.070312 L 65.683594 98.070312 Z M 65.683594 91.484375 " fill-opacity="1" fill-rule="nonzero"/></g><g clip-path="url(#8be03d9332)"><path fill="#000000" d="M 122.464844 75.785156 L 118.199219 74.832031 C 113.597656 73.808594 111.832031 72.257812 111.832031 69.828125 C 111.832031 66.746094 114.175781 64.652344 118.65625 64.652344 C 122.386719 64.652344 124.828125 66.40625 125.695312 68.929688 C 125.761719 69.113281 125.820312 69.304688 125.863281 69.5 C 125.902344 69.679688 125.933594 69.84375 125.957031 69.988281 C 126.03125 70.398438 126.386719 70.691406 126.796875 70.691406 L 132.300781 70.691406 C 132.535156 70.691406 132.761719 70.589844 132.921875 70.414062 C 133.082031 70.242188 133.167969 70.003906 133.148438 69.765625 C 132.675781 63.097656 126.925781 58.613281 118.839844 58.613281 C 110.058594 58.613281 104.15625 63.351562 104.15625 70.398438 C 104.15625 75.785156 108.203125 79.042969 114.9375 80.519531 L 119.738281 81.597656 C 124.492188 82.675781 126.328125 84.203125 126.328125 86.808594 C 126.328125 89.839844 123.363281 92.253906 118.996094 92.253906 C 114.984375 92.253906 112.007812 90.550781 110.964844 88.058594 C 110.789062 87.617188 110.667969 87.199219 110.589844 86.878906 C 110.492188 86.492188 110.152344 86.214844 109.757812 86.214844 L 104.15625 86.214844 C 103.917969 86.214844 103.691406 86.316406 103.53125 86.496094 C 103.367188 86.671875 103.289062 86.910156 103.308594 87.152344 C 103.871094 93.917969 109.863281 98.292969 118.582031 98.292969 C 128.097656 98.292969 134.003906 93.664062 134.003906 86.214844 C 134.003906 80.703125 129.992188 77.4375 122.464844 75.785156 Z M 122.464844 75.785156 " fill-opacity="1" fill-rule="nonzero"/></g><g clip-path="url(#a70e381260)"><path fill="#000000" d="M 162.28125 98.296875 L 156 98.296875 C 155.503906 98.296875 155.101562 97.890625 155.101562 97.394531 L 155.101562 64.925781 L 144.332031 64.925781 C 143.835938 64.925781 143.433594 64.519531 143.433594 64.023438 L 143.433594 59.511719 C 143.433594 59.015625 143.835938 58.609375 144.332031 58.609375 L 173.949219 58.609375 C 174.445312 58.609375 174.847656 59.015625 174.847656 59.511719 L 174.847656 64.023438 C 174.847656 64.519531 174.445312 64.925781 173.949219 64.925781 L 163.179688 64.925781 L 163.179688 97.394531 C 163.179688 97.890625 162.777344 98.296875 162.28125 98.296875 Z M 162.28125 98.296875 " fill-opacity="1" fill-rule="nonzero"/></g><g clip-path="url(#a59cfb9495)"><path fill="#000000" d="M 182.179688 98.191406 L 182.179688 71.296875 L 188.765625 71.296875 L 188.765625 98.191406 Z M 182.179688 98.191406 " fill-opacity="1" fill-rule="nonzero"/></g><g clip-path="url(#4beb565fe6)"><path fill="#040606" d="M 185.601562 61.933594 C 184.117188 61.933594 182.910156 60.734375 182.910156 59.257812 C 182.910156 57.78125 184.117188 56.582031 185.601562 56.582031 C 187.089844 56.582031 188.296875 57.78125 188.296875 59.257812 C 188.296875 60.734375 187.089844 61.933594 185.601562 61.933594 Z M 185.601562 52.570312 C 181.886719 52.570312 178.871094 55.566406 178.871094 59.257812 C 178.871094 62.949219 185.601562 71.292969 185.601562 71.292969 C 185.601562 71.292969 192.332031 62.949219 192.332031 59.257812 C 192.332031 55.566406 189.320312 52.570312 185.601562 52.570312 " fill-opacity="1" fill-rule="nonzero"/></g><g clip-path="url(#80c70a252b)"><path fill="#000000" d="M 233.359375 57.703125 L 226.957031 57.703125 C 226.449219 57.703125 226.042969 58.117188 226.042969 58.621094 L 226.042969 83.433594 L 225.886719 83.433594 L 208.871094 58.09375 C 208.699219 57.847656 208.375 57.703125 208.078125 57.703125 L 202.257812 57.703125 C 201.753906 57.703125 201.34375 58.117188 201.34375 58.621094 L 201.34375 97.21875 C 201.34375 97.726562 201.753906 98.136719 202.257812 98.136719 L 208.660156 98.136719 C 209.167969 98.136719 209.574219 97.726562 209.574219 97.21875 L 209.574219 72.40625 L 209.730469 72.40625 L 226.746094 97.75 C 226.917969 97.992188 227.269531 98.136719 227.566406 98.136719 L 233.359375 98.136719 C 233.867188 98.136719 234.273438 97.726562 234.273438 97.21875 L 234.273438 58.621094 C 234.273438 58.117188 233.867188 57.703125 233.359375 57.703125 Z M 233.359375 57.703125 " fill-opacity="1" fill-rule="nonzero"/></g><g clip-path="url(#da36c8f6a1)"><path fill="#000000" d="M 307.601562 99.203125 L 301.320312 99.203125 C 300.824219 99.203125 300.421875 98.800781 300.421875 98.300781 L 300.421875 65.832031 L 289.652344 65.832031 C 289.15625 65.832031 288.753906 65.425781 288.753906 64.929688 L 288.753906 60.417969 C 288.753906 59.921875 289.15625 59.515625 289.652344 59.515625 L 319.269531 59.515625 C 319.765625 59.515625 320.167969 59.921875 320.167969 60.417969 L 320.167969 64.929688 C 320.167969 65.425781 319.765625 65.832031 319.269531 65.832031 L 308.5 65.832031 L 308.5 98.300781 C 308.5 98.800781 308.097656 99.203125 307.601562 99.203125 Z M 307.601562 99.203125 " fill-opacity="1" fill-rule="nonzero"/></g><g clip-path="url(#5834419b92)"><path fill="#000000" d="M 329.394531 58.609375 L 357.933594 58.609375 L 357.933594 65.199219 L 329.394531 65.199219 Z M 329.394531 58.609375 " fill-opacity="1" fill-rule="nonzero"/></g><g clip-path="url(#1b23f80a5f)"><path fill="#000000" d="M 329.394531 75.046875 L 350.800781 75.046875 L 350.800781 81.632812 L 329.394531 81.632812 Z M 329.394531 75.046875 " fill-opacity="1" fill-rule="nonzero"/></g><g clip-path="url(#3ccd275749)"><path fill="#000000" d="M 329.394531 91.484375 L 357.933594 91.484375 L 357.933594 98.070312 L 329.394531 98.070312 Z M 329.394531 91.484375 " fill-opacity="1" fill-rule="nonzero"/></g><g clip-path="url(#02064622d9)"><path fill="#000000" d="M 90.335938 150.472656 C 49.871094 150.472656 16.953125 117.609375 16.953125 77.214844 C 16.953125 50.628906 31.429688 26.078125 54.730469 13.144531 C 54.894531 13.054688 55.101562 13.113281 55.195312 13.277344 C 55.285156 13.441406 55.226562 13.644531 55.0625 13.738281 C 31.976562 26.550781 17.636719 50.875 17.636719 77.214844 C 17.636719 117.234375 50.246094 149.792969 90.335938 149.792969 C 116.773438 149.792969 141.164062 135.433594 153.980469 112.320312 C 154.074219 112.15625 154.28125 112.09375 154.445312 112.1875 C 154.609375 112.277344 154.667969 112.484375 154.578125 112.648438 C 141.640625 135.980469 117.023438 150.472656 90.335938 150.472656 " fill-opacity="1" fill-rule="nonzero"/></g><path fill="#000000" d="M 77.472656 3.578125 C 77.339844 3.382812 77.070312 3.242188 76.882812 3.257812 C 76.847656 3.226562 76.8125 3.199219 76.777344 3.175781 C 76.433594 2.953125 75.875 2.96875 75.191406 3.101562 C 74.4375 3.246094 73.175781 3.71875 72.261719 4.050781 C 71.347656 4.386719 69.378906 5.191406 68.203125 5.679688 C 68.027344 5.75 67.769531 5.851562 67.46875 5.972656 C 66.953125 5.953125 65.941406 5.910156 65.554688 5.894531 C 65.027344 5.878906 61.101562 5.785156 60.875 5.816406 C 60.648438 5.851562 60.339844 5.992188 60.3125 6.058594 C 60.289062 6.125 60.367188 6.113281 60.539062 6.164062 C 60.710938 6.214844 61.835938 6.421875 61.996094 6.46875 C 62.132812 6.507812 63.957031 6.941406 64.5625 7.117188 C 63.195312 7.652344 61.84375 8.1875 61.203125 8.460938 C 61.039062 8.535156 60.839844 8.621094 60.621094 8.722656 C 59.855469 8.6875 59.203125 8.46875 58.726562 8.261719 C 58.207031 8.035156 55.332031 6.804688 55.128906 6.761719 C 54.929688 6.71875 54.148438 6.953125 53.695312 7.210938 C 53.871094 7.453125 55.550781 9.246094 56.257812 10.039062 C 55.910156 10.035156 55.3125 10.03125 55.140625 10.054688 C 54.953125 10.082031 54.652344 10.179688 54.265625 10.382812 C 54.234375 10.398438 54.238281 10.441406 54.269531 10.453125 C 54.585938 10.59375 55.398438 10.902344 55.882812 11.070312 C 55.667969 11.1875 55.480469 11.292969 55.316406 11.386719 C 55.273438 11.40625 55.289062 11.539062 55.351562 11.679688 C 55.414062 11.824219 55.5 11.921875 55.546875 11.90625 C 55.957031 11.882812 56.46875 11.835938 57.027344 11.773438 C 56.957031 11.953125 56.570312 12.917969 56.570312 12.917969 C 56.570312 12.917969 57.386719 12.714844 57.679688 12.566406 C 58.050781 12.378906 59.074219 11.773438 59.632812 11.421875 C 60.660156 11.265625 61.554688 11.109375 61.972656 11.015625 C 62.957031 10.789062 66.050781 9.574219 66.5625 9.382812 C 66.710938 9.328125 67.203125 9.128906 67.835938 8.867188 C 67.925781 8.914062 67.980469 8.988281 68.007812 9.074219 C 68.019531 9.109375 68.027344 9.148438 68.023438 9.191406 L 67.445312 13.308594 L 67.410156 13.546875 C 67.40625 13.597656 67.457031 13.632812 67.503906 13.613281 L 68.226562 13.3125 C 68.289062 13.289062 68.34375 13.246094 68.386719 13.195312 C 68.539062 13.007812 69.042969 12.019531 69.578125 10.945312 C 69.808594 10.878906 70.035156 10.8125 70.265625 10.738281 C 70.410156 10.691406 70.550781 10.644531 70.691406 10.597656 C 70.933594 10.511719 71.167969 10.433594 71.375 10.359375 C 71.464844 10.328125 71.53125 10.246094 71.539062 10.152344 C 71.554688 9.933594 71.523438 9.683594 71.441406 9.425781 C 71.339844 9.113281 71.183594 8.851562 71.007812 8.679688 C 70.941406 8.617188 70.847656 8.601562 70.765625 8.636719 C 70.75 8.644531 70.734375 8.652344 70.71875 8.660156 C 70.929688 8.242188 71.089844 7.945312 71.140625 7.875 C 71.273438 7.703125 71.480469 7.496094 71.664062 7.28125 C 71.96875 7.15625 72.195312 7.0625 72.289062 7.023438 C 72.824219 6.8125 73.933594 6.328125 74.5625 6.03125 C 75.671875 5.503906 76.515625 4.976562 76.972656 4.628906 C 77.433594 4.28125 77.609375 3.769531 77.472656 3.578125 " fill-opacity="1" fill-rule="nonzero"/><g clip-path="url(#b6a86c2181)"><path fill="#000000" d="M 254.4375 68.789062 L 243.484375 98.113281 L 253.625 98.113281 L 256.113281 91.078125 L 258.949219 82.578125 Z M 267.59375 58.429688 L 258.375 58.429688 L 262.871094 71.390625 L 262.875 71.375 L 269.535156 91.078125 L 272.070312 98.113281 L 282.40625 98.113281 L 267.59375 58.429688 " fill-opacity="1" fill-rule="nonzero"/></g></svg>